<svg width="24" height="24" viewBox="0 0 24 24" fill="none" xmlns="http://www.w3.org/2000/svg">
<path d="M3.83149 24C2.5898 24 1.63193 23.4286 0.957872 22.2857C0.319291 21.0857 0 19.6571 0 18C0 17.1429 0.0709536 16.2857 0.212861 15.4286C0.425721 13.9429 0.798226 12.4857 1.33038 11.0571C1.898 9.57143 2.53659 8.17143 3.24612 6.85714C3.95565 5.54286 4.7184 4.31428 5.53437 3.17143C6.35033 1.97143 7.14856 0.914284 7.92905 0H11.8137C10.3237 1.82857 9.08204 3.6 8.08869 5.31428C7.13082 7.02857 6.29712 8.82857 5.58758 10.7143C6.58093 10.9429 7.34368 11.5714 7.87583 12.6C8.44346 13.5714 8.72727 14.7143 8.72727 16.0286C8.72727 16.4286 8.70954 16.8571 8.67406 17.3143C8.63858 17.7143 8.58537 18.1143 8.51441 18.5143C8.2306 20.1714 7.66297 21.5143 6.81153 22.5429C5.99557 23.5143 5.00222 24 3.83149 24ZM16.0177 24C14.7761 24 13.8182 23.4286 13.1441 22.2857C12.5055 21.0857 12.1863 19.6571 12.1863 18C12.1863 17.1429 12.2572 16.2857 12.3991 15.4286C12.612 13.9429 12.9845 12.4857 13.5166 11.0571C14.0843 9.57143 14.7228 8.17143 15.4324 6.85714C16.1419 5.54286 16.9047 4.31428 17.7206 3.17143C18.5366 1.97143 19.3348 0.914284 20.1153 0H24C22.51 1.82857 21.2683 3.6 20.2749 5.31428C19.3171 7.02857 18.4834 8.82857 17.7738 10.7143C18.7672 10.9429 19.5299 11.5714 20.0621 12.6C20.6297 13.5714 20.9135 14.7143 20.9135 16.0286C20.9135 16.4286 20.8958 16.8571 20.8603 17.3143C20.8248 17.7143 20.7716 18.1143 20.7007 18.5143C20.4169 20.1714 19.8492 21.5143 18.9978 22.5429C18.1818 23.5143 17.1885 24 16.0177 24Z" fill="#660002"/>
</svg>
