<svg width="24" height="24" viewBox="0 0 24 24" fill="none" xmlns="http://www.w3.org/2000/svg">
<path d="M0 24C1.49002 22.1714 2.71397 20.4 3.67184 18.6857C4.66519 16.9714 5.51663 15.1714 6.22616 13.2857C5.23282 13.0571 4.45233 12.4571 3.8847 11.4857C3.35255 10.4571 3.08647 9.28571 3.08647 7.97143C3.08647 7.57143 3.10421 7.17143 3.13969 6.77143C3.17517 6.31428 3.22838 5.88571 3.29933 5.48571C3.58315 3.82857 4.13304 2.51428 4.949 1.54286C5.80044 0.514286 6.81153 0 7.98226 0C9.22395 0 10.1641 0.599999 10.8027 1.8C11.4767 2.94286 11.8137 4.34286 11.8137 6C11.8137 6.85714 11.7428 7.71428 11.6009 8.57143C11.388 10.0571 10.9978 11.5429 10.4302 13.0286C9.89801 14.4571 9.27716 15.8286 8.56763 17.1429C7.85809 18.4571 7.09534 19.7143 6.27938 20.9143C5.46341 22.0571 4.66519 23.0857 3.8847 24H0ZM12.1863 24C13.6763 22.1714 14.9002 20.4 15.8581 18.6857C16.8514 16.9714 17.7029 15.1714 18.4124 13.2857C17.4191 13.0571 16.6386 12.4571 16.071 11.4857C15.5388 10.4571 15.2727 9.28571 15.2727 7.97143C15.2727 7.57143 15.2905 7.17143 15.3259 6.77143C15.3614 6.31428 15.4146 5.88571 15.4856 5.48571C15.7694 3.82857 16.3193 2.51428 17.1353 1.54286C17.9867 0.514286 18.9978 0 20.1685 0C21.4102 0 22.3503 0.599999 22.9889 1.8C23.663 2.94286 24 4.34286 24 6C24 6.85714 23.929 7.71428 23.7871 8.57143C23.5743 10.0571 23.184 11.5429 22.6164 13.0286C22.0843 14.4571 21.4634 15.8286 20.7539 17.1429C20.0443 18.4571 19.2816 19.7143 18.4656 20.9143C17.6497 22.0571 16.8514 23.0857 16.071 24H12.1863Z" fill="#660002"/>
</svg>
