<svg width="48" height="48" viewBox="0 0 48 48" fill="none" xmlns="http://www.w3.org/2000/svg">
<path d="M24 40.5C20.462 40.5 17.916 40.4983 15.931 40.3058C13.9687 40.1155 12.7135 39.75 11.7118 39.1205C10.5668 38.4012 9.59867 37.4331 8.87925 36.2882C8.25 35.2865 7.88425 34.0313 7.69425 32.069C7.50175 30.084 7.5 27.538 7.5 24C7.5 20.462 7.50175 17.916 7.69425 15.931C7.88425 13.9687 8.25 12.7135 8.87925 11.7118C9.59864 10.5668 10.5668 9.59864 11.7118 8.87925C12.7135 8.25 13.9687 7.88425 15.931 7.69425C17.9157 7.50175 20.4618 7.5 24 7.5C27.538 7.5 30.084 7.50175 32.069 7.69425C34.0313 7.88425 35.2865 8.25 36.2882 8.87925C37.4331 9.59867 38.4012 10.5668 39.1205 11.7118C39.75 12.7135 40.1155 13.9687 40.3058 15.931C40.4983 17.916 40.5 20.462 40.5 24C40.5 27.538 40.4983 30.084 40.3058 32.069C40.1155 34.0313 39.75 35.2865 39.1205 36.2882C38.4011 37.4331 37.4331 38.4011 36.2882 39.1205C35.2865 39.75 34.0313 40.1155 32.069 40.3058C30.084 40.4983 27.538 40.5 24 40.5Z" stroke="white" stroke-width="4"/>
<path d="M24 31.5C28.1421 31.5 31.5 28.1421 31.5 24C31.5 19.8579 28.1421 16.5 24 16.5C19.8579 16.5 16.5 19.8579 16.5 24C16.5 28.1421 19.8579 31.5 24 31.5Z" stroke="white" stroke-width="4"/>
<path d="M33.75 16.5C34.9926 16.5 36 15.4926 36 14.25C36 13.0074 34.9926 12 33.75 12C32.5074 12 31.5 13.0074 31.5 14.25C31.5 15.4926 32.5074 16.5 33.75 16.5Z" fill="white"/>
</svg>
