<svg width="52" height="52" viewBox="0 0 52 52" fill="none" xmlns="http://www.w3.org/2000/svg">
<path d="M48 14C48 12.8954 48.8954 12 50 12C51.1046 12 52 12.8954 52 14C52 15.1046 51.1046 16 50 16C48.8954 16 48 15.1046 48 14Z" fill="#FF363A"/>
<path d="M48 1.99998C48 0.895413 48.8954 -1.85966e-05 50 -1.85966e-05C51.1046 -1.85966e-05 52 0.895413 52 1.99998C52 3.10455 51.1046 3.99998 50 3.99998C48.8954 3.99998 48 3.10455 48 1.99998Z" fill="#FF363A"/>
<path d="M36 38C36 36.8954 36.8954 36 38 36C39.1046 36 40 36.8954 40 38C40 39.1046 39.1046 40 38 40C36.8954 40 36 39.1046 36 38Z" fill="#FF363A"/>
<path d="M36 26C36 24.8954 36.8954 24 38 24C39.1046 24 40 24.8954 40 26C40 27.1046 39.1046 28 38 28C36.8954 28 36 27.1046 36 26Z" fill="#FF363A"/>
<path d="M36 14C36 12.8954 36.8954 12 38 12C39.1046 12 40 12.8954 40 14C40 15.1046 39.1046 16 38 16C36.8954 16 36 15.1046 36 14Z" fill="#FF363A"/>
<path d="M36 1.99998C36 0.895413 36.8954 -1.85966e-05 38 -1.85966e-05C39.1046 -1.85966e-05 40 0.895413 40 1.99998C40 3.10455 39.1046 3.99998 38 3.99998C36.8954 3.99998 36 3.10455 36 1.99998Z" fill="#FF363A"/>
<path d="M24 50C24 48.8954 24.8954 48 26 48C27.1046 48 28 48.8954 28 50C28 51.1046 27.1046 52 26 52C24.8954 52 24 51.1046 24 50Z" fill="#FF363A"/>
<path d="M24 38C24 36.8954 24.8954 36 26 36C27.1046 36 28 36.8954 28 38C28 39.1046 27.1046 40 26 40C24.8954 40 24 39.1046 24 38Z" fill="#FF363A"/>
<path d="M24 26C24 24.8954 24.8954 24 26 24C27.1046 24 28 24.8954 28 26C28 27.1046 27.1046 28 26 28C24.8954 28 24 27.1046 24 26Z" fill="#FF363A"/>
<path d="M24 14C24 12.8954 24.8954 12 26 12C27.1046 12 28 12.8954 28 14C28 15.1046 27.1046 16 26 16C24.8954 16 24 15.1046 24 14Z" fill="#FF363A"/>
<path d="M24 1.99998C24 0.895413 24.8954 -1.85966e-05 26 -1.85966e-05C27.1046 -1.85966e-05 28 0.895413 28 1.99998C28 3.10455 27.1046 3.99998 26 3.99998C24.8954 3.99998 24 3.10455 24 1.99998Z" fill="#FF363A"/>
<path d="M12 50C12 48.8954 12.8954 48 14 48C15.1046 48 16 48.8954 16 50C16 51.1046 15.1046 52 14 52C12.8954 52 12 51.1046 12 50Z" fill="#FF363A"/>
<path d="M12 38C12 36.8954 12.8954 36 14 36C15.1046 36 16 36.8954 16 38C16 39.1046 15.1046 40 14 40C12.8954 40 12 39.1046 12 38Z" fill="#FF363A"/>
<path d="M12 26C12 24.8954 12.8954 24 14 24C15.1046 24 16 24.8954 16 26C16 27.1046 15.1046 28 14 28C12.8954 28 12 27.1046 12 26Z" fill="#FF363A"/>
<path d="M12 14C12 12.8954 12.8954 12 14 12C15.1046 12 16 12.8954 16 14C16 15.1046 15.1046 16 14 16C12.8954 16 12 15.1046 12 14Z" fill="#FF363A"/>
<path d="M12 1.99998C12 0.895413 12.8954 -1.85966e-05 14 -1.85966e-05C15.1046 -1.85966e-05 16 0.895413 16 1.99998C16 3.10455 15.1046 3.99998 14 3.99998C12.8954 3.99998 12 3.10455 12 1.99998Z" fill="#FF363A"/>
<path d="M-1.85966e-05 50C-1.85966e-05 48.8954 0.895413 48 1.99998 48C3.10455 48 3.99998 48.8954 3.99998 50C3.99998 51.1046 3.10455 52 1.99998 52C0.895413 52 -1.85966e-05 51.1046 -1.85966e-05 50Z" fill="#FF363A"/>
<path d="M-1.85966e-05 50C-1.85966e-05 48.8954 0.895413 48 1.99998 48C3.10455 48 3.99998 48.8954 3.99998 50C3.99998 51.1046 3.10455 52 1.99998 52C0.895413 52 -1.85966e-05 51.1046 -1.85966e-05 50Z" fill="#FF363A"/>
<path d="M-1.85966e-05 50C-1.85966e-05 48.8954 0.895413 48 1.99998 48C3.10455 48 3.99998 48.8954 3.99998 50C3.99998 51.1046 3.10455 52 1.99998 52C0.895413 52 -1.85966e-05 51.1046 -1.85966e-05 50Z" fill="#FF363A"/>
<path d="M-1.85966e-05 50C-1.85966e-05 48.8954 0.895413 48 1.99998 48C3.10455 48 3.99998 48.8954 3.99998 50C3.99998 51.1046 3.10455 52 1.99998 52C0.895413 52 -1.85966e-05 51.1046 -1.85966e-05 50Z" fill="#FF363A"/>
<path d="M-1.85966e-05 38C-1.85966e-05 36.8954 0.895413 36 1.99998 36C3.10455 36 3.99998 36.8954 3.99998 38C3.99998 39.1046 3.10455 40 1.99998 40C0.895413 40 -1.85966e-05 39.1046 -1.85966e-05 38Z" fill="#FF363A"/>
<path d="M-1.85966e-05 26C-1.85966e-05 24.8954 0.895413 24 1.99998 24C3.10455 24 3.99998 24.8954 3.99998 26C3.99998 27.1046 3.10455 28 1.99998 28C0.895413 28 -1.85966e-05 27.1046 -1.85966e-05 26Z" fill="#FF363A"/>
<path d="M-1.85966e-05 14C-1.85966e-05 12.8954 0.895413 12 1.99998 12C3.10455 12 3.99998 12.8954 3.99998 14C3.99998 15.1046 3.10455 16 1.99998 16C0.895413 16 -1.85966e-05 15.1046 -1.85966e-05 14Z" fill="#FF363A"/>
<path d="M-1.85966e-05 1.99998C-1.85966e-05 0.895413 0.895413 -1.85966e-05 1.99998 -1.85966e-05C3.10455 -1.85966e-05 3.99998 0.895413 3.99998 1.99998C3.99998 3.10455 3.10455 3.99998 1.99998 3.99998C0.895413 3.99998 -1.85966e-05 3.10455 -1.85966e-05 1.99998Z" fill="#FF363A"/>
</svg>
