<svg width="20" height="20" viewBox="0 0 20 20" fill="none" xmlns="http://www.w3.org/2000/svg">
<g clip-path="url(#clip0_84_10)">
<path d="M15.5629 9.26961C15.4628 9.22832 15.3611 9.18858 15.258 9.15053C15.0786 6.30606 13.272 4.6776 10.2385 4.66094C10.2248 4.66086 10.2111 4.66086 10.1974 4.66086C8.38294 4.66086 6.87392 5.32718 5.94513 6.53966L7.61345 7.52425C8.30729 6.61857 9.39621 6.4255 10.1982 6.4255C10.2074 6.4255 10.2167 6.4255 10.2259 6.42557C11.2247 6.43105 11.9784 6.6809 12.4662 7.16813C12.8212 7.52284 13.0586 8.01302 13.1762 8.63165C12.2907 8.50216 11.3329 8.46234 10.3091 8.51284C7.42502 8.65577 5.57089 10.1029 5.69542 12.1137C5.75861 13.1337 6.34925 14.0112 7.35846 14.5845C8.21174 15.0691 9.31071 15.306 10.4529 15.2524C11.9612 15.1813 13.1445 14.6861 13.97 13.7808C14.5969 13.0933 14.9935 12.2024 15.1685 11.0798C15.8874 11.453 16.4201 11.9442 16.7143 12.5346C17.2146 13.5382 17.2438 15.1875 15.6796 16.5321C14.3091 17.71 12.6618 18.2196 10.1721 18.2353C7.41043 18.2177 5.3218 17.4557 3.96383 15.9705C2.69221 14.5798 2.03503 12.571 2.01051 10C2.03503 7.42894 2.69221 5.42017 3.96383 4.02945C5.3218 2.54426 7.41039 1.78229 10.1721 1.76464C12.9538 1.78243 15.0788 2.54806 16.4888 4.04042C17.1801 4.77225 17.7014 5.69258 18.045 6.76566L20 6.3169C19.5835 4.99606 18.9281 3.85789 18.0362 2.91396C16.2287 1.0007 13.5851 0.0203279 10.1789 0H10.1653C6.76598 0.0202573 4.15199 1.00435 2.39591 2.92493C0.83324 4.634 0.0271697 7.01205 8.47536e-05 9.99297L0 10L8.47536e-05 10.007C0.0271697 12.9879 0.83324 15.366 2.39591 17.0751C4.15199 18.9956 6.76598 19.9798 10.1653 20H10.1789C13.201 19.982 15.3313 19.3013 17.0862 17.7928C19.3821 15.8194 19.313 13.3457 18.5563 11.8272C18.0134 10.7382 16.9783 9.85377 15.5629 9.26961ZM10.3449 13.4903C9.08084 13.5516 7.76763 13.0634 7.70288 12.0179C7.65488 11.2427 8.34413 10.3777 10.4225 10.2747C10.6605 10.2629 10.894 10.2571 11.1235 10.2571C11.8784 10.2571 12.5846 10.3202 13.2267 10.4409C12.9872 13.0141 11.5825 13.4319 10.3449 13.4903Z" fill="white"/>
</g>
<defs>
<clipPath id="clip0_84_10">
<rect width="20" height="20" fill="white"/>
</clipPath>
</defs>
</svg>
