<svg width="40" height="40" viewBox="0 0 40 40" fill="none" xmlns="http://www.w3.org/2000/svg">
<g clip-path="url(#clip0_377_2)">
<mask id="mask0_377_2" style="mask-type:luminance" maskUnits="userSpaceOnUse" x="0" y="0" width="40" height="40">
<path d="M40 0H0V40H40V0Z" fill="white"/>
</mask>
<g mask="url(#mask0_377_2)">
<path d="M31.1258 18.5392C30.9256 18.4566 30.7222 18.3772 30.516 18.3011C30.1572 12.6121 26.544 9.3552 20.477 9.32188C20.4496 9.32172 20.4222 9.32172 20.3948 9.32172C16.7659 9.32172 13.7478 10.6544 11.8903 13.0793L15.2269 15.0485C16.6146 13.2371 18.7924 12.851 20.3964 12.851C20.4148 12.851 20.4334 12.851 20.4518 12.8511C22.4494 12.8621 23.9568 13.3618 24.9324 14.3363C25.6424 15.0457 26.1172 16.026 26.3524 17.2633C24.5814 17.0043 22.6658 16.9247 20.6182 17.0257C14.85 17.3115 11.1418 20.2058 11.3908 24.2274C11.5172 26.2674 12.6985 28.0224 14.7169 29.169C16.4235 30.1382 18.6214 30.612 20.9058 30.5048C23.9224 30.3626 26.289 29.3722 27.94 27.5616C29.1938 26.1866 29.987 24.4048 30.337 22.1596C31.7748 22.906 32.8402 23.8884 33.4286 25.0692C34.4292 27.0764 34.4876 30.375 31.3592 33.0642C28.6182 35.42 25.3236 36.4392 20.3442 36.4706C14.8209 36.4354 10.6436 34.9114 7.92766 31.941C5.38442 29.1596 4.07006 25.142 4.02102 20C4.07006 14.8579 5.38442 10.8403 7.92766 8.0589C10.6436 5.08852 14.8208 3.56458 20.3442 3.52928C25.9076 3.56486 30.1576 5.09612 32.9776 8.08084C34.3602 9.5445 35.4028 11.3852 36.09 13.5313L40 12.6338C39.167 9.99212 37.8562 7.71578 36.0724 5.82792C32.4574 2.0014 27.1702 0.0406558 20.3578 0H20.3306C13.532 0.0405146 8.30398 2.0087 4.79182 5.84986C1.66648 9.268 0.0543394 14.0241 0.000169507 19.9859L0 20L0.000169507 20.014C0.0543394 25.9758 1.66648 30.732 4.79182 34.1502C8.30398 37.9912 13.532 39.9596 20.3306 40H20.3578C26.402 39.964 30.6626 38.6026 34.1724 35.5856C38.7642 31.6388 38.626 26.6914 37.1126 23.6544C36.0268 21.4764 33.9566 19.7075 31.1258 18.5392ZM20.6898 26.9806C18.1617 27.1032 15.5353 26.1268 15.4058 24.0358C15.3098 22.4854 16.6883 20.7554 20.845 20.5494C21.321 20.5258 21.788 20.5142 22.247 20.5142C23.7568 20.5142 25.1692 20.6404 26.4534 20.8818C25.9744 26.0282 23.165 26.8638 20.6898 26.9806Z" fill="white"/>
</g>
</g>
<defs>
<clipPath id="clip0_377_2">
<rect width="40" height="40" fill="white"/>
</clipPath>
</defs>
</svg>
