<svg width="46" height="46" viewBox="0 0 46 46" fill="none" xmlns="http://www.w3.org/2000/svg">
<path d="M32.2416 9.84097C30.8365 8.23009 29.9918 6.12964 29.9918 3.83337H28.2312M32.2416 9.84097C33.5221 11.3096 35.2559 12.3776 37.2303 12.7959C37.8438 12.9294 38.484 13.0007 39.151 13.0007V19.5866C35.7362 19.5866 32.5703 18.4921 29.9914 16.6408V30.0355C29.9914 36.7285 24.5491 42.1667 17.8707 42.1667C14.3758 42.1667 11.2189 40.6713 9.00462 38.295C6.98598 36.1235 5.74989 33.2218 5.74989 30.0355C5.74989 23.4405 11.0322 18.0648 17.5772 17.9224M32.2416 9.84097C32.2075 9.81866 32.1734 9.79614 32.1394 9.77339M13.3889 33.2575C12.7308 32.3497 12.3395 31.2373 12.3395 30.0267C12.3395 26.9741 14.8206 24.4908 17.8709 24.4908C18.44 24.4908 18.9913 24.5886 19.5071 24.7488V18.0204C18.9735 17.9491 18.4311 17.9046 17.8709 17.9046C17.773 17.9046 16.9851 17.957 16.8872 17.957M28.2218 3.83337H23.4019L23.3931 30.2402C23.2864 33.1952 20.8497 35.5716 17.8707 35.5716C16.021 35.5716 14.3936 34.6549 13.3798 33.2665" stroke="white" stroke-width="2.66667" stroke-linejoin="round"/>
</svg>
